<svg width="861" height="265" viewBox="0 0 861 265" fill="none" xmlns="http://www.w3.org/2000/svg">
<path d="M14.1206 14.7824C12.8505 14.7824 12 15.6291 12 16.9007V154.488V169.307C12 170.578 12.8505 171.425 14.1206 171.425H31.0727C31.9218 171.425 32.768 170.578 33.1933 169.307C33.1933 169.307 33.1919 162.956 33.1919 154.488V114.694L81.0841 169.307C81.9318 170.365 83.2033 171.425 85.3225 171.425H105.24C106.513 171.425 107.361 170.578 107.361 169.307C107.361 167.19 56.5015 112.154 56.5015 112.154C56.5015 112.154 107.361 69.8181 107.361 67.7012C107.361 66.6428 106.726 65.5843 105.24 65.5843H83.2033C82.1437 65.5843 80.4483 66.4325 78.9649 67.7012L33.1919 110.249V14.7824C33.1919 13.5108 32.3442 12.6655 31.0727 12.6655L14.1206 14.7824Z" fill="#3169F4"/>
<path d="M102.562 118.504C102.562 148.986 112.099 173.54 157.658 173.54C178.85 173.54 191.564 169.306 191.564 169.306C192.835 169.095 193.473 168.249 193.685 167.189C193.685 167.189 195.802 155.125 195.802 154.488C195.802 153.22 194.956 152.373 193.685 152.373C192.835 152.373 176.731 156.605 157.658 156.605C133.289 156.605 125.236 144.752 123.966 126.97H200.042C201.314 126.97 202.16 125.913 202.16 124.854V118.504C202.16 80.4022 185.206 63.4673 155.541 63.4673C112.099 63.4673 102.562 88.0229 102.562 118.504ZM155.541 80.4022C174.613 80.4022 180.971 93.737 180.971 110.038H123.966C125.236 92.4683 131.17 80.4022 155.541 80.4022Z" fill="#3169F4"/>
<path d="M233.312 80.4024L233.313 67.6053C232.888 66.3366 232.042 65.4898 231.194 65.4898H214.241C212.971 65.4898 212.122 66.3366 212.122 67.6053V82.5193V169.307C212.122 170.578 212.971 171.425 214.241 171.425H231.194C232.464 171.425 233.312 170.578 233.312 169.307V110.674C233.312 90.5619 244.332 80.4024 265.1 80.4024C286.29 80.4024 286.29 96.4892 286.29 118.505V169.307C286.29 170.578 287.138 171.425 288.409 171.425H305.362C306.633 171.425 307.481 170.578 307.481 169.307V118.505C307.481 88.0231 307.481 63.4675 265.1 63.4675C241.789 63.4675 233.312 80.4024 233.312 80.4024Z" fill="#3169F4"/>
<path d="M337.783 65.5933C336.198 66.3906 320.833 81.8226 320.833 81.8226C319.44 83.2211 318.712 84.0806 318.712 85.3507V175.666C318.712 192.6 315.747 201.067 305.997 201.067C299.64 201.067 296.462 198.95 295.404 198.95C294.553 198.95 293.495 199.798 293.283 200.645C293.283 200.645 291.164 212.288 291.164 213.346C291.164 214.403 292.012 215.463 293.283 215.886C293.283 215.886 297.522 218.002 305.997 218.002C331.427 218.002 339.904 198.95 339.904 175.666V67.7102C339.904 66.6193 339.013 65.4987 338.182 65.5001C338.046 65.5001 337.912 65.5298 337.783 65.5933Z" fill="#3169F4"/>
<path d="M361.237 71.9347C360.177 72.3581 359.328 73.2049 359.118 74.0516C359.118 74.0516 356.998 86.328 356.998 86.7514C356.998 88.0229 357.846 88.8682 359.118 88.8682C359.54 88.8682 383.063 80.4022 397.262 80.4022C414.214 80.4022 422.69 86.7514 422.69 97.3371V110.038C422.69 110.038 403.406 107.92 395.142 107.92C367.594 107.92 350.641 118.504 350.641 139.672C350.641 167.189 376.07 173.54 388.785 173.54C416.333 173.54 422.69 158.723 422.69 158.723L424.81 169.306C425.233 170.578 426.081 171.425 426.929 171.425H443.881C445.152 171.425 446 170.578 446 169.306C446 168.461 443.881 162.956 443.881 154.488V97.3371C443.881 76.1685 424.81 63.4673 397.262 63.4673C379.462 63.4673 361.237 71.9347 361.237 71.9347ZM371.833 139.672C371.833 129.089 382.427 124.854 395.142 124.854H422.69V130.994C422.69 154.701 405.313 156.605 388.785 156.605C382.427 156.605 371.833 154.488 371.833 139.672Z" fill="#3169F4"/>
<path d="M318.944 2.06737V66.5301C318.944 68.7289 320.219 69.2567 321.776 67.7001L352.385 37.1283C353.941 35.5717 353.941 33.0258 352.385 31.4678L321.776 0.894592C321.172 0.29058 320.609 0.00128088 320.149 0.00128088C319.421 0.00128088 318.944 0.721043 318.944 2.06737Z" fill="#11B911"/>
<path d="M387.3 235L374.85 213.625H366.6V235H359.775V182.725H376.65C380.6 182.725 383.925 183.4 386.625 184.75C389.375 186.1 391.425 187.925 392.775 190.225C394.125 192.525 394.8 195.15 394.8 198.1C394.8 201.7 393.75 204.875 391.65 207.625C389.6 210.375 386.5 212.2 382.35 213.1L395.475 235H387.3ZM366.6 208.15H376.65C380.35 208.15 383.125 207.25 384.975 205.45C386.825 203.6 387.75 201.15 387.75 198.1C387.75 195 386.825 192.6 384.975 190.9C383.175 189.2 380.4 188.35 376.65 188.35H366.6V208.15ZM442.905 212.875C442.905 214.175 442.83 215.55 442.68 217H409.83C410.08 221.05 411.455 224.225 413.955 226.525C416.505 228.775 419.58 229.9 423.18 229.9C426.13 229.9 428.58 229.225 430.53 227.875C432.53 226.475 433.93 224.625 434.73 222.325H442.08C440.98 226.275 438.78 229.5 435.48 232C432.18 234.45 428.08 235.675 423.18 235.675C419.28 235.675 415.78 234.8 412.68 233.05C409.63 231.3 407.23 228.825 405.48 225.625C403.73 222.375 402.855 218.625 402.855 214.375C402.855 210.125 403.705 206.4 405.405 203.2C407.105 200 409.48 197.55 412.53 195.85C415.63 194.1 419.18 193.225 423.18 193.225C427.08 193.225 430.53 194.075 433.53 195.775C436.53 197.475 438.83 199.825 440.43 202.825C442.08 205.775 442.905 209.125 442.905 212.875ZM435.855 211.45C435.855 208.85 435.28 206.625 434.13 204.775C432.98 202.875 431.405 201.45 429.405 200.5C427.455 199.5 425.28 199 422.88 199C419.43 199 416.48 200.1 414.03 202.3C411.63 204.5 410.255 207.55 409.905 211.45H435.855ZM466.464 235.675C463.314 235.675 460.489 235.15 457.989 234.1C455.489 233 453.514 231.5 452.064 229.6C450.614 227.65 449.814 225.425 449.664 222.925H456.714C456.914 224.975 457.864 226.65 459.564 227.95C461.314 229.25 463.589 229.9 466.389 229.9C468.989 229.9 471.039 229.325 472.539 228.175C474.039 227.025 474.789 225.575 474.789 223.825C474.789 222.025 473.989 220.7 472.389 219.85C470.789 218.95 468.314 218.075 464.964 217.225C461.914 216.425 459.414 215.625 457.464 214.825C455.564 213.975 453.914 212.75 452.514 211.15C451.164 209.5 450.489 207.35 450.489 204.7C450.489 202.6 451.114 200.675 452.364 198.925C453.614 197.175 455.389 195.8 457.689 194.8C459.989 193.75 462.614 193.225 465.564 193.225C470.114 193.225 473.789 194.375 476.589 196.675C479.389 198.975 480.889 202.125 481.089 206.125H474.264C474.114 203.975 473.239 202.25 471.639 200.95C470.089 199.65 467.989 199 465.339 199C462.889 199 460.939 199.525 459.489 200.575C458.039 201.625 457.314 203 457.314 204.7C457.314 206.05 457.739 207.175 458.589 208.075C459.489 208.925 460.589 209.625 461.889 210.175C463.239 210.675 465.089 211.25 467.439 211.9C470.389 212.7 472.789 213.5 474.639 214.3C476.489 215.05 478.064 216.2 479.364 217.75C480.714 219.3 481.414 221.325 481.464 223.825C481.464 226.075 480.839 228.1 479.589 229.9C478.339 231.7 476.564 233.125 474.264 234.175C472.014 235.175 469.414 235.675 466.464 235.675ZM527.548 193.9V235H520.723V228.925C519.423 231.025 517.598 232.675 515.248 233.875C512.948 235.025 510.398 235.6 507.598 235.6C504.398 235.6 501.523 234.95 498.973 233.65C496.423 232.3 494.398 230.3 492.898 227.65C491.448 225 490.723 221.775 490.723 217.975V193.9H497.473V217.075C497.473 221.125 498.498 224.25 500.548 226.45C502.598 228.6 505.398 229.675 508.948 229.675C512.598 229.675 515.473 228.55 517.573 226.3C519.673 224.05 520.723 220.775 520.723 216.475V193.9H527.548ZM588.497 193.15C591.697 193.15 594.547 193.825 597.047 195.175C599.547 196.475 601.522 198.45 602.972 201.1C604.422 203.75 605.147 206.975 605.147 210.775V235H598.397V211.75C598.397 207.65 597.372 204.525 595.322 202.375C593.322 200.175 590.597 199.075 587.147 199.075C583.597 199.075 580.772 200.225 578.672 202.525C576.572 204.775 575.522 208.05 575.522 212.35V235H568.772V211.75C568.772 207.65 567.747 204.525 565.697 202.375C563.697 200.175 560.972 199.075 557.522 199.075C553.972 199.075 551.147 200.225 549.047 202.525C546.947 204.775 545.897 208.05 545.897 212.35V235H539.072V193.9H545.897V199.825C547.247 197.675 549.047 196.025 551.297 194.875C553.597 193.725 556.122 193.15 558.872 193.15C562.322 193.15 565.372 193.925 568.022 195.475C570.672 197.025 572.647 199.3 573.947 202.3C575.097 199.4 576.997 197.15 579.647 195.55C582.297 193.95 585.247 193.15 588.497 193.15ZM653.842 212.875C653.842 214.175 653.767 215.55 653.617 217H620.767C621.017 221.05 622.392 224.225 624.892 226.525C627.442 228.775 630.517 229.9 634.117 229.9C637.067 229.9 639.517 229.225 641.467 227.875C643.467 226.475 644.867 224.625 645.667 222.325H653.017C651.917 226.275 649.717 229.5 646.417 232C643.117 234.45 639.017 235.675 634.117 235.675C630.217 235.675 626.717 234.8 623.617 233.05C620.567 231.3 618.167 228.825 616.417 225.625C614.667 222.375 613.792 218.625 613.792 214.375C613.792 210.125 614.642 206.4 616.342 203.2C618.042 200 620.417 197.55 623.467 195.85C626.567 194.1 630.117 193.225 634.117 193.225C638.017 193.225 641.467 194.075 644.467 195.775C647.467 197.475 649.767 199.825 651.367 202.825C653.017 205.775 653.842 209.125 653.842 212.875ZM646.792 211.45C646.792 208.85 646.217 206.625 645.067 204.775C643.917 202.875 642.342 201.45 640.342 200.5C638.392 199.5 636.217 199 633.817 199C630.367 199 627.417 200.1 624.967 202.3C622.567 204.5 621.192 207.55 620.842 211.45H646.792ZM699.121 182.725C704.821 182.725 709.746 183.8 713.896 185.95C718.096 188.05 721.296 191.075 723.496 195.025C725.746 198.975 726.871 203.625 726.871 208.975C726.871 214.325 725.746 218.975 723.496 222.925C721.296 226.825 718.096 229.825 713.896 231.925C709.746 233.975 704.821 235 699.121 235H682.846V182.725H699.121ZM699.121 229.375C705.871 229.375 711.021 227.6 714.571 224.05C718.121 220.45 719.896 215.425 719.896 208.975C719.896 202.475 718.096 197.4 714.496 193.75C710.946 190.1 705.821 188.275 699.121 188.275H689.671V229.375H699.121ZM759.574 235.525C754.724 235.525 750.299 234.4 746.299 232.15C742.299 229.85 739.124 226.675 736.774 222.625C734.474 218.525 733.324 213.925 733.324 208.825C733.324 203.725 734.474 199.15 736.774 195.1C739.124 191 742.299 187.825 746.299 185.575C750.299 183.275 754.724 182.125 759.574 182.125C764.474 182.125 768.924 183.275 772.924 185.575C776.924 187.825 780.074 190.975 782.374 195.025C784.674 199.075 785.824 203.675 785.824 208.825C785.824 213.975 784.674 218.575 782.374 222.625C780.074 226.675 776.924 229.85 772.924 232.15C768.924 234.4 764.474 235.525 759.574 235.525ZM759.574 229.6C763.224 229.6 766.499 228.75 769.399 227.05C772.349 225.35 774.649 222.925 776.299 219.775C777.999 216.625 778.849 212.975 778.849 208.825C778.849 204.625 777.999 200.975 776.299 197.875C774.649 194.725 772.374 192.3 769.474 190.6C766.574 188.9 763.274 188.05 759.574 188.05C755.874 188.05 752.574 188.9 749.674 190.6C746.774 192.3 744.474 194.725 742.774 197.875C741.124 200.975 740.299 204.625 740.299 208.825C740.299 212.975 741.124 216.625 742.774 219.775C744.474 222.925 746.774 225.35 749.674 227.05C752.624 228.75 755.924 229.6 759.574 229.6ZM834.434 197.875C832.984 194.825 830.884 192.475 828.134 190.825C825.384 189.125 822.184 188.275 818.534 188.275C814.884 188.275 811.584 189.125 808.634 190.825C805.734 192.475 803.434 194.875 801.734 198.025C800.084 201.125 799.259 204.725 799.259 208.825C799.259 212.925 800.084 216.525 801.734 219.625C803.434 222.725 805.734 225.125 808.634 226.825C811.584 228.475 814.884 229.3 818.534 229.3C823.634 229.3 827.834 227.775 831.134 224.725C834.434 221.675 836.359 217.55 836.909 212.35H816.059V206.8H844.184V212.05C843.784 216.35 842.434 220.3 840.134 223.9C837.834 227.45 834.809 230.275 831.059 232.375C827.309 234.425 823.134 235.45 818.534 235.45C813.684 235.45 809.259 234.325 805.259 232.075C801.259 229.775 798.084 226.6 795.734 222.55C793.434 218.5 792.284 213.925 792.284 208.825C792.284 203.725 793.434 199.15 795.734 195.1C798.084 191 801.259 187.825 805.259 185.575C809.259 183.275 813.684 182.125 818.534 182.125C824.084 182.125 828.984 183.5 833.234 186.25C837.534 189 840.659 192.875 842.609 197.875H834.434Z" fill="#3169F4"/>
</svg>
